<?xml version="1.0" standalone="no"?>
<!DOCTYPE svg PUBLIC "-//W3C//DTD SVG 20010904//EN"
 "http://www.w3.org/TR/2001/REC-SVG-20010904/DTD/svg10.dtd">
<svg version="1.0" xmlns="http://www.w3.org/2000/svg"
 width="184.000000pt" height="184.000000pt" viewBox="0 0 184.000000 184.000000"
 preserveAspectRatio="xMidYMid meet">
<metadata>
Created by potrace 1.11, written by Peter Selinger 2001-2013
</metadata>
<g transform="translate(0.000000,184.000000) scale(0.100000,-0.100000)"
fill="#000000" stroke="none">
<path d="M1745 1526 c-52 -16 -175 -78 -234 -118 -157 -106 -355 -296 -480
-461 -63 -82 -85 -104 -150 -142 -99 -60 -297 -156 -404 -198 -51 -20 -83 -37
-79 -43 17 -26 119 -64 172 -65 145 -3 254 68 354 232 73 119 150 214 271 334
129 129 192 172 460 312 155 81 217 139 169 157 -21 8 -32 7 -79 -8z"/>
<path d="M577 1484 c-1 -2 -28 -5 -59 -8 -60 -6 -168 -42 -180 -60 -4 -6 -8
-8 -8 -3 0 11 -80 -41 -127 -84 -24 -22 -41 -39 -39 -39 2 0 -9 -14 -26 -32
-16 -17 -39 -50 -51 -72 -37 -71 -57 -117 -47 -111 5 3 3 -7 -5 -22 -23 -47
-33 -172 -21 -253 6 -41 27 -114 36 -125 5 -5 8 -14 8 -18 0 -21 26 -66 35
-60 5 3 7 2 4 -4 -8 -13 46 -88 101 -139 77 -72 193 -132 291 -150 96 -18 271
-3 306 26 5 5 12 8 15 8 14 -2 80 27 80 36 0 5 3 6 6 3 7 -7 66 35 123 87 36
34 116 146 104 146 -4 0 -3 4 2 8 21 15 37 55 62 157 8 32 11 178 4 198 -6 16
-8 16 -24 -3 -9 -11 -15 -20 -13 -20 1 0 -17 -21 -41 -47 -47 -50 -64 -81 -67
-123 -2 -14 -10 -40 -20 -57 -9 -18 -14 -33 -11 -33 9 0 -54 -83 -96 -127 -94
-97 -272 -150 -404 -118 -16 4 -37 8 -45 9 -8 0 -17 3 -20 6 -11 11 -105 54
-113 52 -5 -1 -6 2 -2 8 3 5 2 10 -3 10 -4 0 -19 10 -32 23 -14 12 -28 21 -33
19 -5 -1 -6 2 -3 7 4 5 3 11 -1 13 -24 10 -85 125 -99 186 -22 94 -9 225 30
301 9 17 13 31 9 31 -4 0 2 7 13 15 10 8 16 15 11 15 -14 0 80 100 95 100 5 0
6 6 2 13 -4 6 -4 9 1 5 4 -4 24 4 44 17 19 14 40 25 46 25 5 0 22 6 37 14 84
44 254 35 360 -20 15 -8 30 -14 33 -14 2 0 30 -23 60 -52 57 -53 110 -128 121
-173 3 -14 10 -25 14 -25 4 0 22 18 41 41 19 22 40 47 47 54 15 17 16 35 0 35
-6 0 -9 3 -5 6 9 9 -45 85 -101 142 -81 84 -222 155 -330 167 -93 11 -111 12
-115 9z"/>
<path d="M487 1245 c-15 -8 -27 -12 -27 -9 0 2 -18 -5 -40 -16 -22 -11 -40
-26 -40 -32 0 -6 -3 -9 -6 -5 -14 14 -108 -94 -103 -119 0 -4 -4 -10 -11 -14
-6 -4 -12 -13 -13 -21 -2 -8 -6 -20 -10 -26 -5 -7 -6 -13 -2 -13 3 0 1 -9 -5
-19 -7 -13 -7 -22 0 -26 5 -3 10 -1 10 6 0 20 54 134 67 142 8 5 11 12 8 18
-4 5 -1 9 6 9 6 0 26 12 44 28 54 46 70 57 78 59 4 0 18 4 30 8 12 4 27 8 32
10 6 1 15 3 20 5 34 9 144 4 168 -7 15 -8 31 -11 36 -9 5 3 14 -1 21 -9 7 -8
17 -15 23 -15 6 0 34 -18 61 -41 l51 -41 -50 48 c-71 67 -141 96 -241 100 -54
2 -89 -2 -107 -11z"/>
<path d="M220 890 c0 -22 2 -40 4 -40 2 0 6 18 8 40 2 22 0 40 -4 40 -5 0 -8
-18 -8 -40z"/>
</g>
</svg>
